PathFileType  4	(X/Y/Z) C:\Users\antoi\Documents\MyRepositories\mobilecap\ResultsAnalysis
DataRate	CameraRate	NumFrames	NumMarkers	Units	OrigDataRate	OrigDataStartFrame	OrigNumFrames
100.0	100.0	4	51	mm	100.0	839	1341
Frame#	Time	r_knee			r_shank_antsup			r_ankle			r_calc			r_5meta			r_toe			L_knee			L_shank_antsup			L_ankle			L_calc			L_5meta			L_toe			r_sh2			r_sh3			r_sh4			L_sh2			L_sh3			r_thigh1			r_thigh2			r_thigh3			r_thigh4			r_thigh5			L_thigh1			L_thigh2			L_thigh3			L_thigh4			r.ASIS			r.PSIS			L.ASIS			L.PSIS			C7			R_Shoulder			L_Shoulder			R_Sternum			L_Sternum			R_humerus			R_elbow_med			R_elbow_lat			R_forearm			R_wrist_radius			R_wrist_ulna			L_humerus			L_elbow_med			L_elbow_lat			L_forearm			L_wrist_radius			L_wrist_ulna			R_HJC			L_HJC			R_HJC_reg			L_HJC_reg			
		X1	Y1	Z1	X2	Y2	Z2	X3	Y3	Z3	X4	Y4	Z4	X5	Y5	Z5	X6	Y6	Z6	X7	Y7	Z7	X8	Y8	Z8	X9	Y9	Z9	X10	Y10	Z10	X11	Y11	Z11	X12	Y12	Z12	X13	Y13	Z13	X14	Y14	Z14	X15	Y15	Z15	X16	Y16	Z16	X17	Y17	Z17	X18	Y18	Z18	X19	Y19	Z19	X20	Y20	Z20	X21	Y21	Z21	X22	Y22	Z22	X23	Y23	Z23	X24	Y24	Z24	X25	Y25	Z25	X26	Y26	Z26	X27	Y27	Z27	X28	Y28	Z28	X29	Y29	Z29	X30	Y30	Z30	X31	Y31	Z31	X32	Y32	Z32	X33	Y33	Z33	X34	Y34	Z34	X35	Y35	Z35	X36	Y36	Z36	X37	Y37	Z37	X38	Y38	Z38	X39	Y39	Z39	X40	Y40	Z40	X41	Y41	Z41	X42	Y42	Z42	X43	Y43	Z43	X44	Y44	Z44	X45	Y45	Z45	X46	Y46	Z46	X47	Y47	Z47	X48	Y48	Z48	X49	Y49	Z49	X50	Y50	Z50	X51	Y51	Z51	

839	8.38000000	-220.16133	499.37832	-316.65842	-186.48221	454.24159	-324.53896	-261.39220	94.29433	-353.47601	-317.76935	57.95911	-407.18338	-141.17188	39.80738	-311.10695	-97.97323	59.66250	-364.97707	-190.21403	501.20643	-734.43151	-172.44787	421.73682	-767.98051	-252.16369	103.02433	-793.16054	-310.14932	57.10239	-749.14705	-135.16110	41.37828	-834.34135	-90.70611	59.89214	-781.09838	-192.43230	339.49473	-339.37306	-253.56429	451.59939	-286.33407	-257.34564	335.75714	-286.17193	-258.22204	441.74654	-757.55958	-275.47384	322.78862	-782.28506	-98.42870	789.47458	-380.24055	-102.25302	677.11623	-371.52528	-125.02229	661.59115	-307.62963	-163.86367	798.62468	-288.46019	-170.86227	683.52362	-283.97039	-168.96756	815.82828	-681.61856	-169.43264	681.88565	-727.69160	-276.17663	804.46729	-650.58690	-267.87029	665.52294	-670.59387	-113.95678	970.89096	-363.41352	-305.37842	992.09173	-442.05344	-118.31117	939.93335	-601.78152	-307.70871	981.69231	-539.77582	-266.69706	1447.32930	-492.49839	-190.60479	1417.21044	-323.49676	-201.41682	1415.34421	-650.27796	-146.68319	1370.46153	-473.76003	-141.18735	1367.04895	-508.32445	-209.66865	1194.05681	-218.21856	-272.39102	1091.26801	-240.98926	-231.10650	1109.06751	-183.88193	-98.61214	1111.28768	-236.94876	-21.41242	1136.15319	-294.80068	-12.78952	1094.47237	-280.97636	-229.14896	1196.40554	-751.05075	-274.21539	1078.26783	-710.50620	-249.46135	1091.68495	-776.74266	-108.08116	1084.92845	-726.58948	-21.44476	1105.76396	-671.25223	-20.92339	1059.62237	-669.85791	-186.67120	884.07192	-390.92741	-200.64085	869.77861	-580.54854	-182.38306	891.74250	-387.09360	-186.14447	874.95699	-544.82838	
840	8.39000000	-219.97643	499.38551	-316.59386	-186.26865	454.27875	-324.58699	-261.37262	94.31851	-353.47633	-317.76787	57.96245	-407.18069	-141.18782	39.79505	-311.10571	-97.96381	59.65426	-364.98810	-190.21907	501.19646	-734.42402	-172.40861	421.70467	-767.96760	-252.15388	103.01909	-793.16921	-310.15136	57.10278	-749.16355	-135.16045	41.37912	-834.33818	-90.70076	59.89546	-781.09980	-192.32020	339.43849	-339.40478	-253.26089	451.61492	-286.53296	-257.27098	335.72188	-286.33663	-258.20529	441.72090	-757.56657	-275.43233	322.76302	-782.34370	-98.60123	789.67083	-380.23266	-102.32213	677.22399	-371.56909	-125.05776	661.67061	-307.70356	-164.09077	798.67793	-288.55956	-170.94458	683.54534	-284.04597	-169.24548	815.82056	-681.73840	-169.65182	681.78228	-727.65416	-276.63102	804.21769	-650.68413	-268.04275	665.39979	-670.70633	-114.38775	971.00805	-363.43095	-305.89881	992.09520	-442.11120	-118.68903	939.85529	-601.73227	-308.07722	981.69024	-539.92829	-266.50821	1447.43843	-492.65890	-190.51338	1417.28017	-323.63870	-201.22863	1415.49662	-650.23159	-146.60530	1370.47215	-473.83483	-141.05072	1366.96332	-508.37768	-209.59939	1194.22890	-217.95127	-272.42642	1091.41071	-241.03239	-231.17265	1109.31905	-183.73869	-98.67884	1111.35894	-236.78527	-21.46163	1136.13342	-294.63599	-12.80431	1094.55970	-280.66556	-229.02531	1196.48665	-751.19425	-274.21468	1078.38233	-710.71507	-249.39074	1091.78177	-776.94413	-108.12183	1084.89104	-726.70808	-21.62526	1105.74557	-671.24394	-21.01030	1059.60415	-669.81966	-187.13214	884.15367	-390.89763	-201.01326	869.72177	-580.51466	-182.87898	891.70865	-387.19455	-186.39135	874.93228	-544.90816	
841	8.40000000	-219.79548	499.41514	-316.29580	-186.05629	454.25250	-324.77728	-261.35980	94.34287	-353.47709	-317.77590	57.96810	-407.17941	-141.18552	39.80017	-311.10617	-97.96844	59.66271	-364.98988	-190.28294	501.18167	-734.44424	-172.43379	421.70420	-767.98062	-252.12826	103.02074	-793.16584	-310.14836	57.09982	-749.17950	-135.16289	41.37524	-834.33202	-90.68569	59.90931	-781.10798	-192.18185	339.43554	-339.51872	-252.95615	451.64878	-286.71670	-257.24110	335.74930	-286.53039	-258.22788	441.69315	-757.57478	-275.56565	322.61594	-782.25352	-98.81762	789.87767	-380.22681	-102.36601	677.32480	-371.63804	-125.06709	661.76421	-307.80163	-164.26488	798.72821	-288.63763	-170.97654	683.63820	-284.11036	-169.59493	815.84401	-681.83440	-169.89756	681.64971	-727.54705	-277.02608	804.09199	-650.92028	-268.25993	665.21497	-670.59515	-114.80227	971.16432	-363.49094	-306.35607	992.03316	-442.23322	-119.06781	939.85667	-601.70439	-308.49309	981.71599	-540.21470	-266.32633	1447.51208	-492.81891	-190.37562	1417.37302	-323.71369	-200.91560	1415.50653	-650.31077	-146.49210	1370.44969	-473.86987	-140.92314	1366.89266	-508.45525	-209.57946	1194.38296	-217.77310	-272.51245	1091.57863	-241.03253	-231.27996	1109.55353	-183.63624	-98.77903	1111.44759	-236.64324	-21.50178	1136.14786	-294.44306	-12.85071	1094.63143	-280.47077	-228.86939	1196.55958	-751.34593	-274.20851	1078.54732	-711.04524	-249.29487	1091.86036	-777.12309	-108.12261	1084.86589	-726.78272	-21.78989	1105.76125	-671.17644	-21.06984	1059.61760	-669.79559	-187.56018	884.24336	-390.95112	-201.33298	869.71033	-580.56825	-183.20615	891.59563	-387.32421	-186.64512	874.99107	-545.01267	
842	8.41000000	-219.60012	499.40221	-316.15226	-185.80499	454.21037	-325.14430	-261.34569	94.31913	-353.53850	-317.75682	58.00940	-407.21966	-141.16698	39.82604	-311.10761	-97.96735	59.67313	-364.99728	-190.42336	501.16969	-734.49817	-172.55456	421.72119	-768.04598	-252.13177	103.01532	-793.17712	-310.13596	57.10764	-749.18666	-135.16525	41.36822	-834.32970	-90.67648	59.92254	-781.11621	-191.92819	339.22510	-339.64319	-252.78036	451.62645	-286.86974	-257.05632	335.61257	-286.93275	-258.32923	441.69160	-757.62821	-275.72948	322.49566	-782.17056	-99.08136	790.09230	-380.32966	-102.38914	677.48029	-371.78329	-125.07329	661.86575	-307.93245	-164.38864	798.76591	-288.75388	-170.98584	683.74524	-284.19591	-169.97435	815.81679	-681.81574	-170.13378	681.59238	-727.49532	-277.37297	804.02436	-651.12241	-268.50887	665.05147	-670.50018	-115.25257	971.20213	-363.67071	-306.74273	992.03148	-442.39151	-119.54378	939.85729	-601.71064	-308.96487	981.75559	-540.43553	-266.13469	1447.59891	-492.95435	-190.20361	1417.46305	-323.78853	-200.54324	1415.54343	-650.47585	-146.34791	1370.43852	-473.94007	-140.82423	1366.84425	-508.51422	-209.66386	1194.52282	-217.80061	-272.58444	1091.68726	-241.04792	-231.41543	1109.71247	-183.59372	-98.85159	1111.54885	-236.53411	-21.54184	1136.20018	-294.26069	-12.93687	1094.64456	-280.39844	-228.69052	1196.61447	-751.45213	-274.16754	1078.71594	-711.42330	-249.16155	1092.00062	-777.38023	-108.08159	1084.87687	-726.81341	-21.90112	1105.80625	-671.08965	-21.10124	1059.65833	-669.77629	-188.02734	884.28052	-391.07061	-201.77259	869.70912	-580.68686	-183.55908	891.59646	-387.45056	-187.13038	875.08008	-545.03473	
